<mxfile host="app.diagrams.net" modified="2024-06-02T13:14:51.377Z" agent="Mozilla/5.0 (Windows NT 10.0; Win64; x64) AppleWebKit/537.36 (KHTML, like Gecko) Chrome/125.0.0.0 Safari/537.36 Edg/125.0.0.0" etag="f2TLuQMIx62gslAssC7P" version="24.4.0" type="device">
  <diagram name="Page-1" id="GwSCO4znNqJujtm-kxc9">
    <mxGraphModel dx="1236" dy="567" grid="1" gridSize="10" guides="1" tooltips="1" connect="1" arrows="1" fold="1" page="1" pageScale="1" pageWidth="827" pageHeight="1169" math="0" shadow="0">
      <root>
        <mxCell id="0" />
        <mxCell id="1" parent="0" />
      </root>
    </mxGraphModel>
  </diagram>
</mxfile>
